<svg width="40" height="40" viewBox="0 0 40 40" fill="none" xmlns="http://www.w3.org/2000/svg">
<mask id="mask0_282_252" style="mask-type:alpha" maskUnits="userSpaceOnUse" x="0" y="0" width="40" height="40">
<rect width="40" height="40" fill="white"/>
</mask>
<g mask="url(#mask0_282_252)">
<path d="M5.4537 15.7207V9.90691C5.4537 9.10751 5.73833 8.42317 6.3076 7.8539C6.87687 7.28463 7.56121 7 8.36061 7H31.6159C32.4153 7 33.0996 7.28463 33.6689 7.8539C34.2381 8.42317 34.5228 9.10751 34.5228 9.90691V15.7207H31.6159V9.90691H8.36061V15.7207H5.4537ZM8.36061 28.8018C7.56121 28.8018 6.87687 28.5172 6.3076 27.9479C5.73833 27.3786 5.4537 26.6943 5.4537 25.8949V18.6276H8.36061V25.8949H31.6159V18.6276H34.5228V25.8949C34.5228 26.6943 34.2381 27.3786 33.6689 27.9479C33.0996 28.5172 32.4153 28.8018 31.6159 28.8018H8.36061ZM4.00024 33.1622V30.2553H35.9762V33.1622H4.00024ZM5.4537 18.6276V15.7207H14.1744C14.4409 15.7207 14.6952 15.7934 14.9375 15.9387C15.1797 16.0841 15.3614 16.2779 15.4825 16.5201L17.1903 19.8994L21.6597 12.0871C21.7808 11.8691 21.9504 11.6934 22.1684 11.5602C22.3864 11.427 22.6287 11.3604 22.8951 11.3604C23.1616 11.3604 23.416 11.427 23.6582 11.5602C23.9004 11.6934 24.0821 11.8933 24.2033 12.1598L25.9837 15.7207H34.5228V18.6276H25.0753C24.8089 18.6276 24.5545 18.561 24.3123 18.4278C24.07 18.2945 23.8883 18.0947 23.7672 17.8282L22.8225 15.9024L18.3531 23.7147C18.232 23.957 18.0503 24.1386 17.8081 24.2598C17.5658 24.3809 17.3115 24.4414 17.045 24.4414C16.7785 24.4414 16.5302 24.3688 16.3001 24.2234C16.07 24.0781 15.8943 23.8843 15.7732 23.642L13.266 18.6276H5.4537Z" fill="white"/>
</g>
</svg>
