<svg width="40" height="40" viewBox="0 0 40 40" fill="none" xmlns="http://www.w3.org/2000/svg">
<mask id="mask0_282_261" style="mask-type:alpha" maskUnits="userSpaceOnUse" x="0" y="0" width="40" height="40">
<rect width="40" height="40" fill="#D9D9D9"/>
</mask>
<g mask="url(#mask0_282_261)">
<path d="M13.8138 19.5345V16.6276H25.4414V19.5345H13.8138ZM13.8138 13.7207V10.8138H25.4414V13.7207H13.8138ZM10.9069 22.4414H21.8078C22.5103 22.4414 23.1644 22.5928 23.77 22.8956C24.3756 23.1985 24.8843 23.6284 25.2961 24.1856L28.3484 28.1826V7.90691H10.9069V22.4414ZM10.9069 31.1622H26.9676L23.0069 25.9661C22.8616 25.7723 22.6859 25.6209 22.48 25.5119C22.2741 25.4029 22.0501 25.3484 21.8078 25.3484H10.9069V31.1622ZM28.3484 34.0691H10.9069C10.1075 34.0691 9.42317 33.7844 8.8539 33.2152C8.28463 32.6459 8 31.9616 8 31.1622V7.90691C8 7.10751 8.28463 6.42317 8.8539 5.8539C9.42317 5.28463 10.1075 5 10.9069 5H28.3484C29.1478 5 29.8321 5.28463 30.4014 5.8539C30.9706 6.42317 31.2553 7.10751 31.2553 7.90691V31.1622C31.2553 31.9616 30.9706 32.6459 30.4014 33.2152C29.8321 33.7844 29.1478 34.0691 28.3484 34.0691Z" fill="white"/>
</g>
</svg>
