<svg width="40" height="40" viewBox="0 0 40 40" fill="none" xmlns="http://www.w3.org/2000/svg">
<mask id="mask0_282_265" style="mask-type:alpha" maskUnits="userSpaceOnUse" x="0" y="0" width="40" height="40">
<rect width="40" height="40" fill="#D9D9D9"/>
</mask>
<g mask="url(#mask0_282_265)">
<path d="M24.4417 33.1622L15.721 30.1099L8.96241 32.7261C8.47792 32.9199 8.02977 32.8654 7.61796 32.5626C7.20615 32.2598 7.00024 31.8541 7.00024 31.3454V10.997C7.00024 10.6821 7.09109 10.4035 7.27277 10.1613C7.45445 9.91902 7.70275 9.73734 8.01766 9.61622L15.721 7L24.4417 10.0523L31.2002 7.43604C31.6847 7.24224 32.1329 7.29675 32.5447 7.59955C32.9565 7.90235 33.1624 8.30811 33.1624 8.81682V29.1652C33.1624 29.4801 33.0716 29.7587 32.8899 30.0009C32.7082 30.2431 32.4599 30.4248 32.145 30.546L24.4417 33.1622ZM22.9882 29.6012V12.5958L17.1744 10.561V27.5664L22.9882 29.6012ZM25.8951 29.6012L30.2555 28.1478V10.9243L25.8951 12.5958V29.6012ZM9.90715 29.2378L14.2675 27.5664V10.561L9.90715 12.0144V29.2378Z" fill="white"/>
</g>
</svg>
